<svg xmlns="http://www.w3.org/2000/svg" version="1.1" xmlns:xlink="http://www.w3.org/1999/xlink" xmlns:svgjs="http://svgjs.dev/svgjs" width="100%" height="100%" viewBox="0 0 1000 600"><rect width="1000" height="600" x="0" y="0" fill="#f7f7f7"/><g><rect width="333.3333333333333" height="333.3333333333333" y="126.75491856348015" fill="#006838" transform="matrix(1.1957984003276034,0,0,1.1957984003276034,0,-50.87303762431576)" x="104.5326919555664"/><path d="M177.80768407203226 298.34588724857014L177.80768407203226 298.34588724857014L165.34789274787332 298.94191371282375Q164.52480858295166 298.94191371282375 164.52480858295166 296.30236794255774Q164.52480858295166 293.6344399597082 166.36965240087952 287.30520655358646Q168.2144962188074 280.9759731474647 171.08109968974145 278.10936967653066Q173.919320948092 275.2427662055966 219.30247886911746 275.2427662055966L219.30247886911746 275.2427662055966Q230.93918602835475 275.2427662055966 230.93918602835475 276.2645258586028L230.93918602835475 276.2645258586028Q230.93918602835475 280.9759731474647 228.38478689583926 289.0365215211803Q225.83038776332376 297.09706989489587 223.98554394539588 299.76499787774543L223.98554394539588 299.76499787774543Q223.78686845731136 354.74134365199575 222.67996216655462 356.78486295800815Q221.54467366321438 358.82838226402055 215.21544025709267 361.3827813965361Q208.8862068509709 363.9371805290516 204.48696390052754 363.9371805290516Q200.08772095008416 363.9371805290516 200.08772095008416 363.3127718522145L200.08772095008416 363.3127718522145Q200.08772095008416 352.27209115723076 199.065961297078 350.02989636313384L199.065961297078 350.02989636313384L198.6686103209089 349.6325453869648L198.04420164407176 350.02989636313384Q185.98176129608188 362.0923367111237 166.56832788896406 362.0923367111237L166.56832788896406 362.0923367111237Q140.00257691080282 362.0923367111237 126.6345547839717 344.9210980981028Q113.23815044455705 327.7498594850819 113.23815044455705 300.5880820426671L113.23815044455705 300.5880820426671Q113.23815044455705 277.6836364877781 121.6109031566912 259.0932872455819L121.6109031566912 259.0932872455819Q126.91837690980674 247.45658008634462 135.20598298419037 238.8567696735424Q143.493589058574 230.2853414733237 158.08204632649588 224.55213453145558Q172.69888580700126 218.84730980217097 191.91364372603454 218.84730980217097L191.91364372603454 218.84730980217097Q196.1993578261439 218.84730980217097 203.7774085859399 219.86906945517717Q211.3270771331524 220.89082910818337 211.8379569596555 221.48685557243698Q212.34883678615859 222.11126424927411 212.34883678615859 225.99962737321437Q212.34883678615859 229.88799049715465 211.3270771331524 236.61457487944548Q210.3053174801462 243.3695414743198 209.08488233905544 244.58997661541054L209.08488233905544 244.58997661541054Q202.7556489329337 241.3260221683074 187.62792962592522 241.3260221683074L187.62792962592522 241.3260221683074Q165.97230142471045 241.3260221683074 153.0867769117989 255.82933279847873Q140.20125239888736 270.3326434286501 140.20125239888736 298.34588724857014L140.20125239888736 298.34588724857014Q140.20125239888736 316.3118278139292 147.5806276705988 327.1538330208283Q154.93162072972677 337.96745601514397 168.2144962188074 337.96745601514397Q181.49737170788802 337.96745601514397 189.75659556968813 331.4395471209377Q198.04420164407176 324.9116382267314 198.04420164407176 320.398866425954L198.04420164407176 320.398866425954L198.04420164407176 313.8709575317477Q198.04420164407176 301.41116620758874 196.82376650298102 300.1623488539145L196.82376650298102 300.1623488539145Q195.37627366122223 298.34588724857014 177.80768407203226 298.34588724857014ZM334.33558647006566 289.5474013476834L334.33558647006566 289.5474013476834L334.1369109819811 286.68079787674935Q339.87011792384925 286.68079787674935 345.3762671650493 288.6391705450112Q350.9107986188329 290.56916100068963 353.55034438909894 292.41400481861746L353.55034438909894 292.41400481861746L356.416947860033 294.25884863654534Q356.416947860033 322.0450347557973 338.84835827084305 340.2380330218244L338.84835827084305 340.2380330218244Q344.55318300012766 348.18505254520596 351.7055005711711 353.9182594870741L351.7055005711711 353.9182594870741Q351.93255827183907 354.11693497515864 351.93255827183907 354.31561046324316L351.93255827183907 354.31561046324316Q351.93255827183907 356.35912976925556 343.84362768554 360.9570482077835Q335.78307931182445 365.5549666463114 329.8511968818718 365.5549666463114L329.8511968818718 365.5549666463114Q322.8975547989129 357.3808894222618 320.0309513279788 353.520908510905L320.0309513279788 353.520908510905Q306.97513353956623 361.07057705811746 291.02433006763613 361.07057705811746L291.02433006763613 361.07057705811746Q269.7660528425904 361.07057705811746 256.4831773535098 350.3421007015524Q243.20030186442918 339.6136243449873 243.20030186442918 318.7810803086942L243.20030186442918 318.7810803086942Q243.20030186442918 287.503882041671 273.45574047844616 272.3761627346625L273.45574047844616 272.3761627346625Q267.9212090246625 257.87285210449113 267.9212090246625 248.47833973935082L267.9212090246625 248.47833973935082Q267.9212090246625 233.74797140851138 279.98364937265245 226.0847740109649Q292.04608972064227 218.42157661341838 307.76983549190436 218.42157661341838L307.76983549190436 218.42157661341838Q318.2144897226344 219.0459852902555 319.0091916749726 219.86906945517717L319.0091916749726 219.86906945517717Q322.07447063399115 225.80095188512985 322.07447063399115 235.7914907145238L322.07447063399115 235.7914907145238Q322.07447063399115 237.63633453245168 321.87579514590664 238.45941869737334L321.87579514590664 238.45941869737334Q316.170970416622 237.63633453245168 310.4377634747539 237.63633453245168Q304.7045565328858 237.63633453245168 298.9997318036012 240.70161349147025Q293.26652486173305 243.76689245048888 293.26652486173305 252.36670286329104Q293.26652486173305 260.9381310635098 304.10853006863215 283.8141944058153Q314.9221530629478 306.7186399607043 325.764158269847 322.2437102438819L325.764158269847 322.2437102438819Q330.0498723699563 316.7375610026818 332.2069205263027 307.03084429912286Q334.33558647006566 297.32412759556394 334.33558647006566 289.5474013476834ZM267.1265070723244 316.7375610026818Q267.1265070723244 326.7280998320757 273.14353614002755 333.5965952772841Q279.16056520773077 340.43670850990895 290.626979091467 340.43670850990895Q302.06501076261975 340.43670850990895 308.19556868065695 336.5483453859687L308.19556868065695 336.5483453859687Q293.26652486173305 314.0696330198322 283.24760381975557 292.41400481861746L283.24760381975557 292.41400481861746Q277.54277909047096 294.25884863654534 272.6326563135244 299.96367336582995L272.6326563135244 299.96367336582995Q267.1265070723244 306.7186399607043 267.1265070723244 316.7375610026818ZM429.16055871155777 332.4613067739439L429.16055871155777 332.4613067739439Q429.16055871155777 343.50198746892755 418.85781554374523 352.1869445194802Q408.52669016334926 360.87190157003295 396.57777866569336 364.64673584363925Q384.6288671680376 368.42157011724544 375.63170577906624 368.42157011724544L375.63170577906624 368.42157011724544Q374.6099461260601 368.42157011724544 372.7651023081321 365.980699835064L372.7651023081321 365.980699835064Q367.65630404310116 359.22573324018964 367.65630404310116 350.22857185121836L367.65630404310116 350.22857185121836L367.65630404310116 348.80946122204307Q383.6071075150313 348.80946122204307 391.97986022716543 343.303311980843Q400.35261293929966 337.76878052705945 400.35261293929966 331.83689809710677L400.35261293929966 331.83689809710677Q400.35261293929966 327.97691718575 395.2438146742686 323.6628208730571Q390.13501640923766 319.3771067729478 384.00445849120035 316.1131523258446Q377.87390057316316 312.8491978787415 372.7651023081321 307.42819527529196Q367.65630404310116 302.00719267184235 367.65630404310116 296.07531024188967L367.65630404310116 296.07531024188967Q367.65630404310116 283.61551891773075 383.1813743262787 273.1992468995842Q398.7064446094563 262.7829748814376 416.3034164112297 262.7829748814376L416.3034164112297 262.7829748814376Q418.3469357172422 262.7829748814376 421.6108901643453 268.40265297297174Q424.87484461144845 274.02233106450586 425.07352009953297 279.9542134944585L425.07352009953297 279.9542134944585Q420.9864814875082 279.9542134944585 412.8124042634586 282.39508377664L412.8124042634586 282.39508377664Q396.6629253034439 287.503882041671 396.6629253034439 295.05355058888347L396.6629253034439 295.05355058888347Q396.6629253034439 300.38940655458254 412.61372877537406 309.58524343163833L412.61372877537406 309.58524343163833Q418.74428669341125 313.047873366826 423.8530849584422 319.1784312848632Q428.96188322347325 325.3089892029004 429.16055871155777 332.4613067739439Z " fill="#f7f7f7" transform="matrix(1.1957984003276034,0,0,1.1957984003276034,0,-50.87303762431576)"/><path d="M580.5007045656132 263.85558614844507L580.5007045656132 283.20632756731436L580.8182769083737 319.34606017345203Q580.8182769083737 331.22326579269236 577.6002105017346 340.4540352222624Q574.4033155846129 349.68480465183245 569.8302738488626 354.78713362551673Q565.2572321131123 359.8894625992011 559.3080435587335 363.0863575163229L559.3080435587335 363.0863575163229Q549.7173588073683 368.4215728746982 539.9573021398642 368.4215728746982L539.9573021398642 368.4215728746982Q539.4915293704822 368.4215728746982 538.136554041371 366.135052006823Q536.7604072227425 363.8485311389479 535.5324608307354 359.8894625992011Q534.3256859282458 355.93039405945433 534.3256859282458 352.5641272261937L534.3256859282458 352.5641272261937L537.2050085026071 352.5641272261937Q540.2537029931073 352.5641272261937 543.0906825884338 352.03483998825965Q545.9064906942431 351.5055527503256 550.0137596606114 349.0708314558289Q554.142200116497 346.6361101613322 557.0215226908583 342.6558701320681Q559.9220167547369 338.6968015923213 562.0603371959905 330.9268649394493Q564.1986576372442 323.1569282865773 564.1986576372442 312.7828984230697L564.1986576372442 312.7828984230697Q564.1986576372442 312.16892522706615 564.0504572106227 312.16892522706615L564.0504572106227 312.16892522706615L563.5846844412406 312.63469799644815Q557.1908946069973 322.54295509057374 543.6199698263679 322.54295509057374L543.6199698263679 322.54295509057374Q533.3941403894819 322.54295509057374 527.2967514084814 314.4554460949413Q521.199362427481 306.3891085888262 521.199362427481 296.3326510680791L521.199362427481 296.3326510680791Q521.199362427481 278.0404841250779 532.9495391096173 266.1421070163202Q544.678544302236 254.2437299075625 566.6333789317409 254.2437299075625L566.6333789317409 254.2437299075625Q571.9685942901162 254.2437299075625 571.9685942901162 255.00590353018754L571.9685942901162 255.00590353018754Q572.4343670594982 257.60999674082314 572.4343670594982 260.65869123132336L572.4343670594982 260.65869123132336L572.2649951433593 262.9452120991985L573.9587143047484 262.9452120991985Q578.8281568937416 262.9452120991985 580.5007045656132 263.85558614844507L580.5007045656132 263.85558614844507ZM563.8810852944837 270.4187478988274L563.8810852944837 270.4187478988274L560.684190377362 269.95297512944546Q550.9241337098579 269.95297512944546 545.20783154017 276.2832504951368Q539.4915293704822 282.6135258608282 539.4915293704822 292.05601018557184L539.4915293704822 292.05601018557184Q539.4915293704822 296.77725234794366 542.3285089658089 300.2917196078258Q545.1443170716179 303.7850153781906 550.5430468985454 303.7850153781906Q555.9629482149902 303.7850153781906 559.6256159014939 299.5295459852008Q563.2882835879976 295.2529051026936 563.2882835879976 292.6699833815753L563.2882835879976 292.6699833815753Q563.2882835879976 275.28819048782077 563.8810852944837 270.4187478988274ZM660.9947077106253 271.4773223746955L660.9947077106253 271.4773223746955L660.8465072840038 269.3390019334419Q665.1019766769937 269.3390019334419 669.2304171328792 270.79983471014Q673.3376860992475 272.2394959973206 675.3278061138797 273.6156428159492L675.3278061138797 273.6156428159492L677.4449550656159 274.99178963457774Q677.4449550656159 295.71867787207555 664.3398030543685 309.28960265270484L664.3398030543685 309.28960265270484Q668.6164439368758 315.2176197175664 673.9516592952511 319.4942606000736L673.9516592952511 319.4942606000736Q674.0998597218727 319.6424610266951 674.0998597218727 319.79066145331666L674.0998597218727 319.79066145331666Q674.0998597218727 321.31500869856677 668.0871566989417 324.74479000037945Q662.0532821864933 328.1745713021922 657.6284408773647 328.1745713021922L657.6284408773647 328.1745713021922Q652.4625974351281 322.0771823211918 650.3242769938747 319.1978597468305L650.3242769938747 319.1978597468305Q640.5642203263706 324.82947595844894 628.6658432176127 324.82947595844894L628.6658432176127 324.82947595844894Q612.8295690586258 324.82947595844894 602.9213119645001 316.8266529208859Q593.0130548703744 308.8238298833229 593.0130548703744 293.28395657757886L593.0130548703744 293.28395657757886Q593.0130548703744 269.95297512944546 615.5606912063654 258.66857121669125L615.5606912063654 258.66857121669125Q611.4534222399972 247.84994007331906 611.4534222399972 240.8421770430721L611.4534222399972 240.8421770430721Q611.4534222399972 229.85417398356097 620.4513052848763 224.13787181387312Q629.4280168402379 218.42156964418524 641.1781935223742 218.42156964418524L641.1781935223742 218.42156964418524Q648.948130175246 218.88734241356724 649.5621033712496 219.50131560957072L649.5621033712496 219.50131560957072Q651.8486242391248 223.9261569186995 651.8486242391248 231.37852122881105L651.8486242391248 231.37852122881105Q651.8486242391248 232.75466804743962 651.7004238125032 233.36864124344316L651.7004238125032 233.36864124344316Q647.4237829299959 232.75466804743962 643.1471420474888 232.75466804743962Q638.891672654499 232.75466804743962 634.6150317719917 235.0411889153148Q630.3595623790018 237.32770978318993 630.3595623790018 243.74267110695075Q630.3595623790018 250.13646094119423 638.4258998851169 267.2006814921883Q646.5134088807495 284.28607353269985 654.5797463868644 295.8668782986971L654.5797463868644 295.8668782986971Q657.7978127935035 291.75960933232875 659.3856745073058 284.5189599173908Q660.9947077106253 277.2783105024529 660.9947077106253 271.4773223746955ZM610.8394490439937 291.75960933232875Q610.8394490439937 299.21197364244034 615.3278048216745 304.33547410564205Q619.8373320888727 309.4378030793264 628.3694423643697 309.4378030793264Q636.9015526398668 309.4378030793264 641.474594375617 306.53730901544776L641.474594375617 306.53730901544776Q630.3595623790018 289.7694893176967 622.8860265793728 273.6156428159492L622.8860265793728 273.6156428159492Q618.6093856968657 274.99178963457774 614.946718010362 279.24725902756757L614.946718010362 279.24725902756757Q610.8394490439937 284.28607353269985 610.8394490439937 291.75960933232875ZM731.7286541881333 303.4886145249476L731.7286541881333 303.4886145249476Q731.7286541881333 311.7243239472016 724.0222320038133 318.2027997395145Q716.3158098194933 324.6812755318274 707.4026127326838 327.4970836376366Q698.4894156458743 330.3128917434458 691.7780534688702 330.3128917434458L691.7780534688702 330.3128917434458Q691.0158798462453 330.3128917434458 689.6397330276168 328.49214364495265L689.6397330276168 328.49214364495265Q685.8288649144915 323.45332913982037 685.8288649144915 316.74196696281643L685.8288649144915 316.74196696281643L685.8288649144915 315.6833924869483Q697.7272420232491 315.6833924869483 703.9728314308711 311.57612352058004Q710.2184208384931 307.4476830646944 710.2184208384931 303.0228417555656L710.2184208384931 303.0228417555656Q710.2184208384931 300.1435191812043 706.4075527253679 296.9254527745652Q702.5966846122426 293.7285578574435 698.0236428764922 291.2938365629468Q693.450601140742 288.8591152684501 689.6397330276168 284.8153607706339Q685.8288649144915 280.7716062728177 685.8288649144915 276.3467649636889L685.8288649144915 276.3467649636889Q685.8288649144915 267.0524810655668 697.430841170006 259.2825444126948Q709.0116459360033 251.5126077598228 722.1167979472507 251.5126077598228L722.1167979472507 251.5126077598228Q723.6411451925007 251.5126077598228 726.0758664869975 255.7045626842605Q728.5105877814942 259.8965176086983 728.679959697633 264.32135891782707L728.679959697633 264.32135891782707Q725.6312652071329 264.32135891782707 719.5338762261324 266.1421070163202L719.5338762261324 266.1421070163202Q707.4872986907533 269.95297512944546 707.4872986907533 275.58459134106386L707.4872986907533 275.58459134106386Q707.4872986907533 279.564831370328 719.3645043099937 286.42439397395344L719.3645043099937 286.42439397395344Q723.9375460457438 289.00731569507167 727.7484141588691 293.58035743082195Q731.5592822719943 298.1533991665722 731.7286541881333 303.4886145249476Z " fill="#006838" transform="matrix(1.1957984003276034,0,0,1.1957984003276034,0,-50.87303762431576)"/></g></svg>